<?xml version="1.0" encoding="utf-8"?>
<!-- created with bpmn-js / http://bpmn.io -->
<!DOCTYPE svg PUBLIC "-//W3C//DTD SVG 1.1//EN" "http://www.w3.org/Graphics/SVG/1.1/DTD/svg11.dtd">
<svg xmlns="http://www.w3.org/2000/svg" xmlns:xlink="http://www.w3.org/1999/xlink" width="434" height="150.89999389648438" viewBox="96 318.1000061035156 434 150.89999389648438" version="1.1"><defs><marker id="sequenceflow-end-white-black-b2erah8mhx2jbt6quo40yaa5b" viewBox="0 0 20 20" refX="11" refY="10" markerWidth="10" markerHeight="10" orient="auto"><path d="M 1 5 L 11 10 L 1 15 Z" style="fill: black; stroke-width: 1px; stroke-linecap: round; stroke-dasharray: 10000, 1; stroke: black;"/></marker></defs><g class="djs-group"><g class="djs-element djs-connection" data-element-id="SequenceFlow_1r0xws0" style="display: block;"><g class="djs-visual"><path d="m  439,423L488,423 " style="fill: none; stroke-width: 2px; stroke: black; stroke-linejoin: round; marker-end: url('#sequenceflow-end-white-black-b2erah8mhx2jbt6quo40yaa5b');"/></g><polyline points="439,423 488,423 " style="fill: none; stroke-opacity: 0; stroke: white; stroke-width: 15px;" class="djs-hit"/><rect x="433" y="417" width="61" height="12" style="fill: none;" class="djs-outline"/></g></g><g class="djs-group"><g class="djs-element djs-connection" data-element-id="SequenceFlow_1s5ms1h" style="display: block;"><g class="djs-visual"><path d="m  289,423L337,423 " style="fill: none; stroke-width: 2px; stroke: black; stroke-linejoin: round; marker-end: url('#sequenceflow-end-white-black-b2erah8mhx2jbt6quo40yaa5b');"/></g><polyline points="289,423 337,423 " style="fill: none; stroke-opacity: 0; stroke: white; stroke-width: 15px;" class="djs-hit"/><rect x="283" y="417" width="60" height="12" style="fill: none;" class="djs-outline"/></g></g><g class="djs-group"><g class="djs-element djs-connection" data-element-id="SequenceFlow_0k511od" style="display: block;"><g class="djs-visual"><path d="m  138,423L187,423 " style="fill: none; stroke-width: 2px; stroke: black; stroke-linejoin: round; marker-end: url('#sequenceflow-end-white-black-b2erah8mhx2jbt6quo40yaa5b');"/></g><polyline points="138,423 187,423 " style="fill: none; stroke-opacity: 0; stroke: white; stroke-width: 15px;" class="djs-hit"/><rect x="132" y="417" width="61" height="12" style="fill: none;" class="djs-outline"/></g></g><g class="djs-group"><g class="djs-element djs-shape" data-element-id="start_event" transform="matrix(1, 0, 0, 1, 102, 405)" style="display: block;"><g class="djs-visual"><circle cx="18" cy="18" r="18" style="stroke: black; stroke-width: 2px; fill: white; fill-opacity: 0.95;"/></g><rect x="0" y="0" width="36" height="36" style="fill: none; stroke-opacity: 0; stroke: white; stroke-width: 15px;" class="djs-hit"/><rect x="-6" y="-6" width="48" height="48" style="fill: none;" class="djs-outline"/></g></g><g class="djs-group"><g class="djs-element djs-shape" data-element-id="choreo_task_1" transform="matrix(1, 0, 0, 1, 188, 383)" style="display: block;"><g class="djs-visual"><g><path d="M10,0a10,10,0,0,0,-10,10l0,60a10,10,0,0,0,10,10l80,0a10,10,0,0,0,10,-10l0,-60a10,10,0,0,0,-10,-10z" style="fill: white; stroke: black; stroke-width: 2px;"/><text style="font-family: Arial, sans-serif; font-size: 12px; font-weight: normal; fill: black;" lineHeight="1.2" class="djs-label" transform="translate(0, 20)"><tspan x="33" y="23.6">task 1</tspan></text></g></g><rect x="0" y="0" width="100" height="80" style="fill: none; stroke-opacity: 0; stroke: white; stroke-width: 15px;" class="djs-hit"/><rect x="-6" y="-6" width="112" height="92" style="fill: none;" class="djs-outline"/></g><g class="djs-children"><g class="djs-group"><g class="djs-element djs-shape" data-element-id="participant_a_choreo_task_1" transform="matrix(1, 0, 0, 1, 188, 383)" style="display: block;"><g class="djs-visual"><g><path d="M0,20l100,0l0,-10a10,10,0,0,0,-10,-10l-80,0a10,10,0,0,0,-10,10z" style="stroke: rgb(0, 0, 0); stroke-width: 2px; fill: white; fill-opacity: 1;"/><text style="font-family: Arial, sans-serif; font-size: 12px; font-weight: normal; fill: black;" lineHeight="1.2" class="djs-label" transform="translate(0, 0)"><tspan x="46" y="13.6">A</tspan></text></g></g><rect x="0" y="0" width="100" height="20" style="fill: none; stroke-opacity: 0; stroke: white; stroke-width: 15px;" class="djs-hit"/><rect x="-6" y="-6" width="112" height="32" style="fill: none;" class="djs-outline"/></g><g class="djs-children"><g class="djs-group"><g class="djs-element djs-shape" data-element-id="message_request_1" transform="matrix(1, 0, 0, 1, 220.5, 338)" style="display: block;"><g class="djs-visual"><g><path d="M17.5,25l0,20" style="stroke: black; stroke-width: 2px; stroke-dasharray: 0, 4; stroke-linecap: round;"/><path d="M0,0l0,25l35,0l0,-25zM0,0l17.5,15l17.5,-15" style="stroke: rgb(0, 0, 0); stroke-width: 2px; fill: white; fill-opacity: 1;"/><text style="font-family: Arial, sans-serif; font-size: 12px; font-weight: normal; fill: black;" lineHeight="1.2" class="djs-label" transform="translate(-32.5, -25)"><tspan x="23.5" y="16.1">request 1</tspan></text></g></g><rect x="0" y="0" width="35" height="25" style="fill: none; stroke-opacity: 0; stroke: white; stroke-width: 15px;" class="djs-hit"/><rect x="-6" y="-6" width="47" height="37" style="fill: none;" class="djs-outline"/></g></g></g></g><g class="djs-group"><g class="djs-element djs-shape" data-element-id="participant_b_choreo_task_1" transform="matrix(1, 0, 0, 1, 188, 443)" style="display: block;"><g class="djs-visual"><g><path d="M100,0l-100,0l0,10a10,10,0,0,0,10,10l80,0a10,10,0,0,0,10,-10z" style="stroke: rgb(0, 0, 0); stroke-width: 2px; fill: lightgray; fill-opacity: 1;"/><text style="font-family: Arial, sans-serif; font-size: 12px; font-weight: normal; fill: black;" lineHeight="1.2" class="djs-label" transform="translate(0, 0)"><tspan x="45.5" y="13.6">B</tspan></text></g></g><rect x="0" y="0" width="100" height="20" style="fill: none; stroke-opacity: 0; stroke: white; stroke-width: 15px;" class="djs-hit"/><rect x="-6" y="-6" width="112" height="32" style="fill: none;" class="djs-outline"/></g></g></g></g><g class="djs-group"><g class="djs-element djs-shape" data-element-id="choreo_task_2" transform="matrix(1, 0, 0, 1, 338, 383)" style="display: block;"><g class="djs-visual"><g><path d="M10,0a10,10,0,0,0,-10,10l0,60a10,10,0,0,0,10,10l80,0a10,10,0,0,0,10,-10l0,-60a10,10,0,0,0,-10,-10z" style="fill: white; stroke: black; stroke-width: 2px;"/><text style="font-family: Arial, sans-serif; font-size: 12px; font-weight: normal; fill: black;" lineHeight="1.2" class="djs-label" transform="translate(0, 20)"><tspan x="33" y="23.6">task 2</tspan></text></g></g><rect x="0" y="0" width="100" height="80" style="fill: none; stroke-opacity: 0; stroke: white; stroke-width: 15px;" class="djs-hit"/><rect x="-6" y="-6" width="112" height="92" style="fill: none;" class="djs-outline"/></g><g class="djs-children"><g class="djs-group"><g class="djs-element djs-shape" data-element-id="participant_b_choreo_task_2" transform="matrix(1, 0, 0, 1, 338, 383)" style="display: block;"><g class="djs-visual"><g><path d="M0,20l100,0l0,-10a10,10,0,0,0,-10,-10l-80,0a10,10,0,0,0,-10,10z" style="stroke: rgb(0, 0, 0); stroke-width: 2px; fill: white; fill-opacity: 1;"/><text style="font-family: Arial, sans-serif; font-size: 12px; font-weight: normal; fill: black;" lineHeight="1.2" class="djs-label" transform="translate(0, 0)"><tspan x="45.5" y="13.6">B</tspan></text></g></g><rect x="0" y="0" width="100" height="20" style="fill: none; stroke-opacity: 0; stroke: white; stroke-width: 15px;" class="djs-hit"/><rect x="-6" y="-6" width="112" height="32" style="fill: none;" class="djs-outline"/></g><g class="djs-children"><g class="djs-group"><g class="djs-element djs-shape" data-element-id="message_request_2" transform="matrix(1, 0, 0, 1, 370.5, 338)" style="display: block;"><g class="djs-visual"><g><path d="M17.5,25l0,20" style="stroke: black; stroke-width: 2px; stroke-dasharray: 0, 4; stroke-linecap: round;"/><path d="M0,0l0,25l35,0l0,-25zM0,0l17.5,15l17.5,-15" style="stroke: rgb(0, 0, 0); stroke-width: 2px; fill: white; fill-opacity: 1;"/><text style="font-family: Arial, sans-serif; font-size: 12px; font-weight: normal; fill: black;" lineHeight="1.2" class="djs-label" transform="translate(-32.5, -25)"><tspan x="23.5" y="16.1">request 2</tspan></text></g></g><rect x="0" y="0" width="35" height="25" style="fill: none; stroke-opacity: 0; stroke: white; stroke-width: 15px;" class="djs-hit"/><rect x="-6" y="-6" width="47" height="37" style="fill: none;" class="djs-outline"/></g></g></g></g><g class="djs-group"><g class="djs-element djs-shape" data-element-id="participant_a_choreo_task_2" transform="matrix(1, 0, 0, 1, 338, 443)" style="display: block;"><g class="djs-visual"><g><path d="M100,0l-100,0l0,10a10,10,0,0,0,10,10l80,0a10,10,0,0,0,10,-10z" style="stroke: rgb(0, 0, 0); stroke-width: 2px; fill: lightgray; fill-opacity: 1;"/><text style="font-family: Arial, sans-serif; font-size: 12px; font-weight: normal; fill: black;" lineHeight="1.2" class="djs-label" transform="translate(0, 0)"><tspan x="45" y="13.6">C</tspan></text></g></g><rect x="0" y="0" width="100" height="20" style="fill: none; stroke-opacity: 0; stroke: white; stroke-width: 15px;" class="djs-hit"/><rect x="-6" y="-6" width="112" height="32" style="fill: none;" class="djs-outline"/></g></g></g></g><g class="djs-group"><g class="djs-element djs-shape" data-element-id="EndEvent_17qqhow" transform="matrix(1, 0, 0, 1, 488, 405)" style="display: block;"><g class="djs-visual"><circle cx="18" cy="18" r="18" style="stroke: black; stroke-width: 4px; fill: white; fill-opacity: 0.95;"/></g><rect x="0" y="0" width="36" height="36" style="fill: none; stroke-opacity: 0; stroke: white; stroke-width: 15px;" class="djs-hit"/><rect x="-6" y="-6" width="48" height="48" style="fill: none;" class="djs-outline"/></g></g><g style="pointer-events: none;" class="djs-drag-group" transform="matrix(1, 0, 0, 1, -1, 10)"/><g style="pointer-events: none;" class="djs-drag-group" transform="matrix(1, 0, 0, 1, 233, 145)"/><g style="pointer-events: none;" class="djs-drag-group" transform="matrix(1, 0, 0, 1, 272, 0)"/><g style="pointer-events: none;" class="djs-drag-group" transform="matrix(1, 0, 0, 1, 271, 0)"/><g style="pointer-events: none;" class="djs-drag-group" transform="matrix(1, 0, 0, 1, 0, 70)"/></svg>